HIERARCHY
ROOT SimulationBone
{
	OFFSET 0.000000 0.000000 0.000000
	CHANNELS 6 Xposition Yposition Zposition Zrotation Yrotation Xrotation 
	JOINT Hips
	{
		OFFSET 0.000000 0.000000 0.000000
		CHANNELS 6 Xposition Yposition Zposition Zrotation Yrotation Xrotation 
		JOINT LeftUpLeg
		{
			OFFSET 0.103458 1.857831 10.548500
			CHANNELS 3 Zrotation Yrotation Xrotation
			JOINT LeftLeg
			{
				OFFSET 43.500000 -0.000027 -0.000013
				CHANNELS 3 Zrotation Yrotation Xrotation
				JOINT LeftFoot
				{
					OFFSET 42.372196 0.000031 0.000011
					CHANNELS 3 Zrotation Yrotation Xrotation
					JOINT LeftToe
					{
						OFFSET 17.299994 -0.000003 -0.000004
						CHANNELS 3 Zrotation Yrotation Xrotation
						End Site
						{
							OFFSET 0.000000 0.000000 0.000000
						}
					}
				}
			}
		}
		JOINT RightUpLeg
		{
			OFFSET 0.103455 1.857826 -10.548502
			CHANNELS 3 Zrotation Yrotation Xrotation
			JOINT RightLeg
			{
				OFFSET 43.500038 -0.000023 0.000010
				CHANNELS 3 Zrotation Yrotation Xrotation
				JOINT RightFoot
				{
					OFFSET 42.372261 0.000004 0.000006
					CHANNELS 3 Zrotation Yrotation Xrotation
					JOINT RightToe
					{
						OFFSET 17.299988 -0.000008 0.000010
						CHANNELS 3 Zrotation Yrotation Xrotation
						End Site
						{
							OFFSET 0.000000 0.000000 0.000000
						}
					}
				}
			}
		}
		JOINT Spine
		{
			OFFSET 6.901968 -2.603722 -0.000004
			CHANNELS 3 Zrotation Yrotation Xrotation
			JOINT Spine1
			{
				OFFSET 12.588099 -0.000002 0.000005
				CHANNELS 3 Zrotation Yrotation Xrotation
				JOINT Spine2
				{
					OFFSET 12.343202 -0.000017 -0.000005
					CHANNELS 3 Zrotation Yrotation Xrotation
					JOINT Neck
					{
						OFFSET 25.832903 0.000008 0.000008
						CHANNELS 3 Zrotation Yrotation Xrotation
						JOINT Head
						{
							OFFSET 11.766607 0.000004 -0.000001
							CHANNELS 3 Zrotation Yrotation Xrotation
							End Site
							{
								OFFSET 0.000000 0.000000 0.000000
							}
						}
					}
					JOINT LeftShoulder
					{
						OFFSET 19.745907 -1.480366 6.000107
						CHANNELS 3 Zrotation Yrotation Xrotation
						JOINT LeftArm
						{
							OFFSET 11.284126 -0.000031 -0.000025
							CHANNELS 3 Zrotation Yrotation Xrotation
							JOINT LeftForeArm
							{
								OFFSET 33.000050 0.000011 0.000029
								CHANNELS 3 Zrotation Yrotation Xrotation
								JOINT LeftHand
								{
									OFFSET 25.200008 0.000009 0.000011
									CHANNELS 3 Zrotation Yrotation Xrotation
									End Site
									{
										OFFSET 0.000000 0.000000 0.000000
									}
								}
							}
						}
					}
					JOINT RightShoulder
					{
						OFFSET 19.746094 -1.480364 -6.000070
						CHANNELS 3 Zrotation Yrotation Xrotation
						JOINT RightArm
						{
							OFFSET 11.284145 -0.000017 -0.000020
							CHANNELS 3 Zrotation Yrotation Xrotation
							JOINT RightForeArm
							{
								OFFSET 33.000088 0.000019 0.000022
								CHANNELS 3 Zrotation Yrotation Xrotation
								JOINT RightHand
								{
									OFFSET 25.199780 0.000137 0.000414
									CHANNELS 3 Zrotation Yrotation Xrotation
									End Site
									{
										OFFSET 0.000000 0.000000 0.000000
									}
								}
							}
						}
					}
				}
			}
		}
	}
}
MOTION
Frames: 15
Frame Time: 0.033333
71.028156 0.000000 -5.067381 0.000000 92.359787 0.000000 -0.690668 89.499489 -2.125359 94.434586 -5.316773 178.455429 -169.709560 11.841089 176.993875 -19.707100 -2.849379 -13.066804 88.589418 8.724124 -1.953405 21.454555 0.003122 0.000016 151.704867 3.133689 -172.964924 -30.498304 -0.923152 0.592496 78.500600 1.519902 7.657981 21.454555 -0.003095 -0.000003 8.882964 -0.929286 -2.361606 7.789463 -1.697697 -4.780797 7.472405 -1.726645 -4.770502 20.196586 3.664291 -24.618211 -8.538317 8.945111 -28.051792 127.694457 -73.384830 52.080681 1.254474 49.545694 20.592973 -60.964390 -19.967530 2.508648 8.907024 -9.373064 23.232528 -176.827013 74.389646 4.623275 14.431565 -54.653056 -64.990165 -21.850588 13.565382 -1.005286 14.830714 4.585207 7.048407 
70.435401 0.000000 -8.933833 0.000000 92.350354 0.000000 -0.592622 88.917282 -2.172194 93.892908 -5.391623 -179.939022 -166.755667 11.736809 178.409609 -18.360424 -2.957238 -12.572141 89.033927 8.358829 -2.257847 21.454558 0.003102 0.000017 153.057627 3.247695 -170.998130 -18.652622 1.306883 0.934189 78.495519 2.086412 11.054901 21.454553 -0.003098 -0.000002 8.730472 -0.793429 -2.603465 7.481262 -1.417156 -5.253048 7.164506 -1.448941 -5.244427 19.746002 4.066216 -24.774942 -8.329333 8.747370 -28.056508 126.756345 -73.397814 53.028274 0.983130 49.773330 19.638228 -61.643256 -19.693466 2.516103 8.859163 -9.263846 23.248815 -175.424311 73.969979 6.056776 15.794655 -54.217652 -65.860734 -21.256015 13.344516 -0.983500 14.477745 4.315204 7.250285 
69.890646 0.000000 -12.794959 0.000000 92.359648 0.000000 -0.425431 88.143211 -2.161399 93.770472 -5.552333 -178.318255 -163.884269 11.227907 179.204220 -18.169598 -3.255961 -11.567294 89.542660 7.640338 -2.644411 21.454560 0.003105 0.000016 154.157479 3.433899 -169.210560 -11.831887 2.670651 0.879028 79.504379 2.786509 14.281859 21.454551 -0.003096 -0.000003 8.689934 -0.684344 -2.816403 7.396896 -1.187582 -5.670953 7.080420 -1.221885 -5.663712 19.134894 4.408461 -24.856838 -8.294957 8.517944 -27.982298 125.896314 -73.518374 53.886890 0.251996 50.354450 19.104408 -61.435380 -19.564829 2.499051 8.741868 -9.638031 22.644162 -174.162406 73.919811 7.351898 16.374803 -54.494186 -66.516187 -20.435885 13.084099 -0.956726 14.503878 4.730894 7.409114 
69.380981 0.000000 -16.661222 0.000000 92.379484 0.000000 -0.445444 87.268402 -2.097466 93.641158 -5.252568 -177.233407 -162.195054 10.205011 179.414753 -19.911470 -3.603440 -10.536625 90.140411 6.892019 -3.183356 21.454558 0.003111 0.000017 153.840066 2.720894 -168.118481 -14.098776 2.060154 0.991380 79.153737 2.817137 14.525695 21.454551 -0.003085 0.000006 8.649913 -0.475464 -2.877973 7.306616 -0.768590 -5.780246 6.990255 -0.803565 -5.775516 18.411209 4.572240 -24.549436 -8.384176 8.050159 -27.452806 126.136969 -73.620580 53.634528 -0.593930 51.072917 19.344195 -60.444353 -19.539459 2.458866 8.979873 -10.031744 22.757284 -173.724564 73.623545 7.798438 15.983396 -54.564814 -65.435152 -20.030945 12.803254 -0.933985 14.970578 4.470374 7.107868 
68.900625 0.000000 -20.524017 0.000000 92.412791 0.000000 -0.291156 86.595734 -1.985099 93.701802 -4.508093 -176.434163 -160.883658 8.573696 178.653980 -22.479136 -3.783314 -9.118721 89.218246 5.798978 -4.100546 21.454562 0.003105 0.000018 153.878165 1.673001 -167.836586 -18.775502 1.368680 0.913371 76.527372 2.331040 11.213659 21.454550 -0.003094 0.000002 8.576587 -0.172617 -2.854291 7.144609 -0.169044 -5.713697 6.828236 -0.203619 -5.712587 18.393942 4.409418 -23.693544 -8.777214 7.841799 -26.561538 127.009731 -73.387814 52.772879 -0.636392 52.048514 21.176255 -58.679624 -20.054538 2.427013 9.301860 -9.733891 22.154690 -174.552997 73.234764 6.942809 14.839819 -54.593251 -64.575928 -19.484184 12.782599 -0.926354 14.810625 4.406904 8.177169 
68.449501 0.000000 -24.373009 0.000000 92.457479 0.000000 0.003566 87.075508 -1.534409 94.121975 -2.294900 -174.764809 -160.096274 4.331998 176.185659 -25.612712 -4.225803 -6.801018 84.757395 4.172429 -3.735974 21.454563 0.003108 0.000017 156.538182 -0.941609 -167.742192 -18.225626 1.603916 1.913156 72.683356 -0.375071 3.570795 21.454550 -0.003090 0.000003 8.506308 0.472515 -2.912216 6.971845 1.119203 -5.790963 6.655449 1.084125 -5.797589 17.933983 4.193019 -22.319317 -7.630809 7.065191 -24.761372 128.492196 -73.146135 51.294577 -0.411877 53.464296 24.484896 -55.964104 -20.705068 2.370599 9.719707 -9.643804 20.501228 -174.220012 72.964404 7.282105 12.301393 -55.144420 -62.016144 -18.844656 12.517876 -0.902375 14.693694 5.286363 7.345846 
67.995053 0.000000 -28.235089 0.000000 92.505068 0.000000 0.191015 87.494202 -0.925035 94.111269 0.104798 -172.935995 -163.134601 -0.578105 172.937671 -34.252217 -3.469657 -3.721664 78.586258 1.556218 -4.723897 21.454557 0.003101 0.000017 158.189094 -4.043311 -171.167710 -18.641642 2.253800 5.193726 71.742395 -4.825328 -3.137104 21.454551 -0.003095 0.000000 8.312099 1.175253 -2.952474 6.548867 2.515151 -5.835214 6.232243 2.479802 -5.850241 17.680723 4.544902 -20.444073 -6.966236 5.438311 -22.243903 129.901811 -72.863918 49.892100 -0.046935 54.961552 27.802230 -52.345228 -20.637417 2.236836 10.113219 -9.555811 18.937651 -174.148801 72.039419 7.345220 8.318625 -55.044013 -58.370810 -18.272484 12.219903 -0.877284 15.341397 4.932296 7.479989 
67.528898 0.000000 -32.106607 0.000000 92.547410 0.000000 0.600405 88.040092 -0.691662 94.493460 0.905018 -172.689992 -167.628142 -3.543904 170.324660 -45.460701 -1.862153 -1.927325 69.171334 -0.646412 -6.073059 21.454562 0.003111 0.000016 159.925246 -5.340300 -171.337126 -21.038217 2.062174 5.505095 73.796041 -5.743506 -5.814670 21.454551 -0.003091 -0.000001 8.265369 1.485617 -2.724946 6.447185 3.120199 -5.365052 6.130102 3.087658 -5.383738 17.599553 4.908968 -18.125133 -6.970328 3.751915 -19.328995 130.566087 -72.642935 49.238311 -0.089476 56.643807 30.659217 -48.195577 -20.424081 2.083384 10.793202 -8.234497 17.827846 -174.708480 71.095623 6.757301 2.717126 -54.788595 -53.876655 -17.873364 12.135761 -0.867830 15.311151 5.134578 8.609923 
67.047826 0.000000 -35.987127 0.000000 92.587283 0.000000 1.069885 88.901611 -0.600804 95.135991 0.776694 -172.454776 -173.269919 -4.463589 171.321690 -56.970454 -0.249062 -2.127481 61.044174 -1.229563 -6.540867 21.454563 0.003108 0.000015 163.234295 -5.455594 -170.105875 -21.636675 1.797721 4.705716 75.889084 -5.402969 -7.130802 21.454551 -0.003087 -0.000001 8.340570 1.573555 -2.508387 6.600303 3.287124 -4.925164 6.282937 3.257221 -4.944869 17.068551 5.475665 -15.477654 -6.912215 2.078625 -16.002910 130.137794 -72.480178 49.686618 -0.338539 58.135517 33.486109 -44.495329 -20.154990 1.950169 11.971924 -6.231430 17.565054 -175.636388 70.816235 5.796201 -3.740754 -55.098620 -47.431327 -17.962902 12.379790 -0.884317 15.040741 5.325348 8.045546 
66.549138 0.000000 -39.881577 0.000000 92.630210 0.000000 1.077081 89.429001 -0.287055 95.842955 1.229535 -171.770798 -179.359388 -4.987001 175.184380 -66.113185 -0.258457 -4.338378 55.943808 -0.516376 -7.834443 21.454558 0.003109 0.000019 166.508223 -6.281396 -169.278261 -21.563049 1.618042 4.612514 78.047738 -5.245694 -7.440432 21.454551 -0.003101 0.000000 8.455838 1.700279 -2.333288 6.831603 3.534926 -4.564482 6.513962 3.507181 -4.585695 16.798695 6.159056 -12.777817 -6.731971 0.592114 -12.675896 130.445289 -72.186480 49.400634 0.069319 58.531648 37.089362 -41.759227 -19.975320 1.858645 12.631220 -3.633635 17.545648 -177.351381 70.663102 4.023741 -9.528320 -55.085062 -41.136716 -20.160854 13.735101 -0.994882 14.979879 5.728389 8.179455 
66.050564 0.000000 -43.782005 0.000000 92.673168 0.000000 0.975224 89.761292 -0.095371 96.482685 1.195660 -171.762177 175.743445 -4.724891 177.513420 -71.987933 -0.385670 -5.522749 62.585051 1.176917 -7.031189 21.454563 0.003108 0.000022 169.376110 -6.656688 -170.005635 -22.193679 1.771462 5.014355 80.665524 -5.232067 -7.070283 21.454555 -0.003084 0.000001 8.576987 1.648450 -2.026665 7.085300 3.417576 -3.950492 6.767412 3.393559 -3.971046 16.542358 6.536551 -10.298774 -6.361281 -0.276187 -9.784183 131.214914 -72.139597 48.624274 1.281406 58.723822 39.524409 -40.735832 -19.369325 1.790465 12.993876 -1.520829 19.061772 -178.758509 70.475982 2.567681 -14.429184 -54.340667 -35.680632 -24.066776 15.252284 -1.143875 14.806211 7.585940 8.866012 
65.569706 0.000000 -47.686648 0.000000 92.708215 0.000000 0.796541 89.942436 -0.093720 96.942285 1.140642 -172.546080 171.123710 -4.054790 178.568957 -74.245727 -0.177903 -6.909681 68.722727 3.276010 -4.905111 21.454562 0.003112 0.000023 172.035854 -6.844890 -170.750986 -22.871585 1.909257 4.952846 83.082524 -4.914878 -6.636643 21.454551 -0.003096 -0.000001 8.682268 1.510100 -1.550061 7.313509 3.114926 -3.002830 6.995387 3.096612 -3.021594 16.215320 6.966517 -8.193095 -6.090630 -1.392882 -7.213995 132.684320 -72.309587 47.118989 2.695274 58.815872 41.301662 -40.337981 -18.871594 1.747102 13.225311 0.025169 20.312105 -179.317109 71.051883 2.002580 -18.623738 -54.016326 -30.623177 -29.615779 17.505529 -1.382606 14.894766 9.825366 9.316626 
65.110104 0.000000 -51.597354 0.000000 92.734999 0.000000 0.682315 90.235550 -0.193435 97.196283 0.549920 -173.669315 167.127940 -2.742000 179.222128 -73.214895 -0.082800 -8.244946 72.915596 4.727075 -3.779665 21.454553 0.003104 0.000020 175.030783 -6.291001 -170.662248 -22.817873 1.863603 4.120841 85.038683 -4.194505 -6.572758 21.454557 -0.003092 0.000000 8.748440 1.211075 -1.049776 7.463842 2.487211 -2.019841 7.145639 2.474830 -2.034830 15.819357 7.431120 -6.555719 -5.842036 -2.418078 -5.151870 134.667520 -72.464714 45.092704 4.510637 58.700183 43.536777 -40.097418 -18.875110 1.740821 13.353464 0.001451 19.870800 179.699395 71.725005 1.002898 -21.505011 -53.545920 -27.022899 -35.806669 20.031686 -1.679215 13.308456 12.659824 8.612694 
64.671789 0.000000 -55.520797 0.000000 92.784867 0.000000 0.531400 90.230476 -0.329106 97.212640 0.403076 -174.657070 163.163944 -1.732798 -178.763631 -69.773388 -0.976982 -9.233372 75.159279 5.853620 -2.583712 21.454560 0.003109 0.000014 177.495224 -5.982999 -170.388235 -23.235574 1.806492 3.292105 87.228523 -3.430424 -6.288800 21.454553 -0.003089 0.000000 8.759790 0.996127 -0.581955 7.498165 2.027818 -1.098406 7.179906 2.021021 -1.110644 15.202792 7.381271 -5.277269 -5.401307 -2.399952 -3.794015 135.816003 -72.512198 43.922214 6.894607 58.765424 45.600143 -39.960404 -19.100943 1.751866 12.946871 -1.189987 17.984600 179.315606 72.814632 0.631813 -24.007237 -53.172336 -23.135196 -42.595655 22.110707 -1.995327 12.209451 15.256435 5.828673 
64.241039 0.000000 -59.458856 0.000000 92.864895 0.000000 0.425369 90.082787 -0.432829 97.059721 0.321313 -175.645937 159.872298 -1.085202 -177.351941 -63.916459 -1.488322 -9.212463 76.946179 5.957575 -2.326755 21.454558 0.003112 0.000020 179.919218 -5.763105 -170.936166 -23.432303 1.917830 2.949312 89.365334 -3.015966 -5.981668 21.454553 -0.003097 -0.000001 8.721061 0.778578 -0.188874 7.427738 1.567684 -0.327512 7.109505 1.565536 -0.336977 14.932004 7.654952 -4.177411 -5.334889 -2.680292 -2.525342 137.325912 -72.429785 42.394431 9.617774 58.649769 46.874847 -39.991656 -19.152592 1.756076 12.480354 -2.574620 16.724022 179.630492 73.694893 0.974608 -26.335097 -52.261985 -18.648689 -49.537873 22.738548 -2.253880 10.615982 16.931617 2.110547 
